<?xml version="1.0" encoding="utf-8"?>
<!-- Generator: Adobe Illustrator 25.2.0, SVG Export Plug-In . SVG Version: 6.00 Build 0)  -->
<svg version="1.1" id="Capa_1" xmlns="http://www.w3.org/2000/svg" xmlns:xlink="http://www.w3.org/1999/xlink" x="0px" y="0px"
	 viewBox="0 0 619.71 595.28" style="enable-background:new 0 0 619.71 595.28;" xml:space="preserve">
<style type="text/css">
	.st0{fill:#142237;}
	.st1{fill:#5DB130;}
	.st2{fill:#FFFFFF;}
	.st3{fill:url(#SVGID_1_);}
	.st4{fill:none;}
</style>
<path class="st1" d="M83.9,557.14c0,0-1.59-79.48,160.49-176.39s139.83-158.89,139.83-158.89s182.74,7.95,219.29-14.3
	c0,0,46.08,22.25-182.74,195.45c0,0-158.9,111.23-147.78,154.14H83.9z"/>
<path class="st0" d="M39.22,557.14c0,0-1.59-79.48,160.49-176.39s145.9-160.2,145.9-160.2s190.19,8.69,216.93-2.66
	c0,0,42.37,11.92-186.45,185.12c0,0-158.9,111.23-147.78,154.14H39.22z"/>
<circle class="st0" cx="155.6" cy="188.88" r="135.03"/>
</svg>
